<svg width="25" height="25" viewBox="0 0 25 25" fill="none" xmlns="http://www.w3.org/2000/svg">
<path d="M10.7871 14.6176L15.2226 12.299L10.7871 9.98047V14.6176Z" fill="#04426F"/>
<path d="M12.5 0C5.64516 0 0 5.64516 0 12.5C0 19.3548 5.64516 25 12.5 25C19.3548 25 25 19.3548 25 12.5C25 5.64516 19.3548 0 12.5 0ZM20.7661 13.1048C20.7661 14.4153 20.5645 15.8266 20.5645 15.8266C20.5645 15.8266 20.3629 16.9355 19.8589 17.4395C19.3548 18.1452 18.6492 18.1452 18.3468 18.1452C16.0282 18.3468 12.6008 18.3468 12.6008 18.3468C12.6008 18.3468 8.26613 18.3468 6.95565 18.1452C6.55242 18.0444 5.74597 18.1452 5.14113 17.4395C4.6371 16.9355 4.43548 15.8266 4.43548 15.8266C4.43548 15.8266 4.23387 14.5161 4.23387 13.1048V11.8952C4.23387 10.5847 4.43548 9.17339 4.43548 9.17339C4.43548 9.17339 4.53629 8.06452 5.04032 7.56048C5.64516 6.85484 6.35081 6.85484 6.65323 6.85484C8.97177 6.65323 12.3992 6.65323 12.3992 6.65323C12.3992 6.65323 15.8266 6.65323 18.1452 6.85484C18.4476 6.85484 19.1532 6.85484 19.7581 7.56048C20.2621 8.06452 20.4637 9.17339 20.4637 9.17339C20.4637 9.17339 20.6653 10.4839 20.6653 11.8952V13.1048H20.7661Z" fill="#04426F"/>
</svg>
