<svg width="25" height="25" viewBox="0 0 25 25" fill="none" xmlns="http://www.w3.org/2000/svg">
<path d="M12.5502 0C5.62249 0 0 5.62249 0 12.4498V12.5502C0 19.3775 5.62249 25 12.4498 25H12.5502C19.3775 25 25 19.3775 25 12.5502V12.4498C25 5.62249 19.3775 0 12.5502 0ZM19.9799 15.6627C19.9799 16.4659 19.7791 17.0683 19.5783 17.4699C19.3775 17.9719 19.0763 18.3735 18.6747 18.7751C18.2731 19.1767 17.8715 19.4779 17.3695 19.6787C16.8675 19.8795 16.3655 19.9799 15.5622 20.0803C14.759 20.0803 14.4578 20.0803 12.4498 20.0803C10.4418 20.0803 10.1406 20.0803 9.33735 20.0803C8.53414 20.0803 7.93173 19.8795 7.53012 19.6787C7.02811 19.4779 6.62651 19.1767 6.2249 18.7751C5.82329 18.3735 5.52209 17.9719 5.32129 17.4699C5.12048 16.9679 5.02008 16.4659 4.91968 15.6627C4.91968 14.8594 4.91968 14.5582 4.91968 12.5502C4.91968 10.5422 4.91968 10.241 4.91968 9.43775C5.02008 8.53414 5.12048 8.03213 5.32129 7.53012C5.52209 7.02811 5.82329 6.62651 6.2249 6.2249C6.62651 5.82329 7.02811 5.52209 7.53012 5.32129C8.03213 5.12048 8.53414 5.02008 9.33735 5.02008C10.1406 5.02008 10.4418 5.02008 12.4498 5.02008C14.4578 5.02008 14.759 5.02008 15.5622 5.02008C16.3655 5.02008 16.9679 5.22088 17.3695 5.42169C17.8715 5.62249 18.2731 5.92369 18.6747 6.3253C19.0763 6.72691 19.3775 7.12851 19.5783 7.63052C19.7791 8.13253 19.8795 8.63454 19.9799 9.43775C19.9799 10.241 19.9799 10.5422 19.9799 12.5502C19.9799 14.5582 20.0803 14.8594 19.9799 15.6627Z" fill="#04426F"/>
<path d="M18.3724 8.03379C18.272 7.63219 18.0712 7.43138 17.77 7.13018C17.4688 6.82897 17.268 6.72857 16.8664 6.52777C16.5652 6.42737 16.1636 6.32696 15.4608 6.22656C14.6576 6.22656 14.4567 6.22656 12.4487 6.22656C10.4407 6.22656 10.1395 6.22656 9.43667 6.22656C8.73386 6.42737 8.33225 6.52777 8.03105 6.62817C7.72984 6.72857 7.42864 6.92937 7.12743 7.13018C6.92663 7.43138 6.72582 7.73259 6.62542 8.03379C6.52502 8.335 6.42462 8.7366 6.32422 9.43941C6.32422 10.2426 6.32422 10.4434 6.32422 12.4515C6.32422 14.4595 6.32422 14.7607 6.32422 15.4635C6.32422 16.1663 6.52502 16.5679 6.62542 16.8691C6.72582 17.2707 6.92663 17.4715 7.22783 17.7727C7.42864 18.074 7.72984 18.2748 8.03105 18.3752C8.33225 18.4756 8.73386 18.576 9.43667 18.6764C10.2399 18.6764 10.4407 18.6764 12.4487 18.6764C14.4567 18.6764 14.758 18.6764 15.4608 18.6764C16.1636 18.6764 16.5652 18.4756 16.8664 18.3752C17.268 18.2748 17.4688 18.074 17.77 17.7727C18.0712 17.4715 18.1716 17.2707 18.3724 16.8691C18.4728 16.5679 18.5732 16.1663 18.6736 15.4635C18.6736 14.6603 18.6736 14.4595 18.6736 12.4515C18.6736 10.4434 18.6736 10.1422 18.6736 9.43941C18.6736 8.7366 18.4728 8.335 18.3724 8.03379ZM12.5491 16.3671C10.4407 16.3671 8.63346 14.6603 8.63346 12.4515C8.63346 10.2426 10.3403 8.5358 12.5491 8.5358C14.6576 8.5358 16.4648 10.2426 16.4648 12.4515C16.4648 14.6603 14.6576 16.3671 12.5491 16.3671ZM16.5652 9.33901C16.0632 9.33901 15.6616 8.93741 15.6616 8.4354C15.6616 7.93339 16.0632 7.53178 16.5652 7.53178C17.0672 7.53178 17.4688 7.93339 17.4688 8.4354C17.4688 8.93741 17.0672 9.33901 16.5652 9.33901Z" fill="#04426F"/>
<path d="M12.5491 9.94141C11.1435 9.94141 10.0391 11.0458 10.0391 12.4514C10.0391 13.8571 11.1435 14.9615 12.5491 14.9615C13.9547 14.9615 15.0591 13.8571 15.0591 12.4514C15.0591 11.0458 13.8543 9.94141 12.5491 9.94141Z" fill="#04426F"/>
</svg>
