<svg width="25" height="25" viewBox="0 0 25 25" fill="none" xmlns="http://www.w3.org/2000/svg">
<path d="M12.5 0C5.64516 0 0 5.64516 0 12.5C0 19.3548 5.64516 25 12.5 25C19.3548 25 25 19.3548 25 12.5C25 5.64516 19.3548 0 12.5 0ZM16.129 7.8629H14.8185C13.8105 7.8629 13.6089 8.36693 13.6089 9.07258V10.6855H16.0282L15.7258 13.1048H13.6089V19.4556H11.0887V13.1048H8.87097V10.5847H10.9879V8.87097C10.9879 6.75403 12.2984 5.64516 14.2137 5.64516C15.121 5.64516 15.9274 5.74597 16.129 5.74597V7.8629Z" fill="#04426F"/>
</svg>
