<svg width="53" height="48" viewBox="0 0 53 48" fill="none" xmlns="http://www.w3.org/2000/svg">
<path d="M29.7983 11.6957C29.0771 9.30259 26.9659 9.45994 26.9659 9.45994C25.1105 9.45994 24.4483 11.3482 24.4483 11.3482L20.4751 22.0482L16.4823 11.5055C15.6037 9.17802 13.5253 9.45994 13.5253 9.45994C11.5715 9.74186 11.0077 11.912 11.0077 11.912L10.6602 13.1577L9.44727 17.4522C9.95866 17.5767 10.4832 17.6423 11.0339 17.6423C11.7945 17.6423 12.5288 17.5112 13.2106 17.2817L13.4729 16.272L13.9974 14.2199L18.1804 25.7657C19.1901 27.5621 20.5407 27.372 20.5407 27.372C22.1142 27.4376 22.901 25.6739 22.901 25.6739L26.9069 14.2199L30.2113 27.2474H34.178L29.7983 11.6957Z" fill="#04426F"/>
<path d="M33.0248 41.2783H33.5034C34.2837 43.8025 35.9752 46.8971 40.3614 46.8971C42.23 46.8971 43.9215 45.894 43.9215 43.5665C43.9215 41.5209 42.5775 40.9177 41.1023 40.4391L37.7192 39.3573C35.9359 38.7934 33.4182 37.9936 33.4182 34.4597C33.4182 31.4503 36.067 29.1621 39.6665 29.1621C42.1841 29.1621 42.6168 30.0013 43.8363 30.0013C44.2297 30.0013 44.4002 29.8833 44.5313 29.6801H45.0099V34.2564H44.5313C43.7052 31.8502 42.6234 29.7194 39.6665 29.7194C36.8865 29.7194 35.2802 30.9651 35.2802 32.8861C35.2802 34.6105 36.6243 35.3317 39.1419 36.0529L42.3087 37.0167C45.0034 37.8559 46.9506 39.3048 46.9506 41.7504C46.9506 44.6811 44.4329 47.4479 40.0467 47.4479C37.4832 47.4479 35.8375 46.3267 34.5328 46.3267C33.8837 46.3267 33.6674 46.6087 33.4903 46.8906H33.0117V41.2783H33.0248Z" fill="#04426F"/>
<path d="M30.1143 23.295C30.2847 23.0655 30.6388 23.1311 30.8879 23.1508C31.36 23.1967 31.8386 23.1114 32.3041 23.0459C32.8155 22.9738 33.3334 22.9738 33.8448 22.8951C34.33 22.823 34.7693 22.6328 35.2151 22.4492C35.4184 22.364 35.6216 22.2853 35.8314 22.2132C36.0675 22.1345 36.31 22.1018 36.5461 22.0296C36.7493 21.9641 36.9526 21.8985 37.1689 21.8788C37.405 21.8526 37.6607 21.9247 37.8836 21.9903C37.8967 21.9969 37.9098 21.9969 37.9295 22.0034C38.9195 22.2853 39.9161 22.5279 40.9192 22.7574C40.952 22.764 40.9782 22.7705 41.011 22.7771C41.4044 22.8689 41.8108 22.9541 42.1977 23.0721C42.2567 23.0918 42.3157 23.1114 42.3747 23.1377C42.7484 23.0459 43.1615 22.9147 43.5548 22.9803C43.8171 22.8885 44.1056 22.882 44.3613 22.7574C44.7153 22.5804 45.0628 22.482 45.4431 22.3771C45.8102 22.2722 46.1643 22.0952 46.4856 21.892C46.8068 21.6887 47.0822 21.5379 47.469 21.551C47.6657 21.5576 47.869 21.5838 48.0656 21.5838C48.2951 21.5838 48.5246 21.5379 48.7541 21.4986C49.1999 21.4199 49.6392 21.3478 50.085 21.2691C50.9832 21.1052 51.8749 21.079 52.7862 21.0527C52.8125 21.0527 52.8321 21.079 52.819 21.0986C52.7141 21.2757 52.4453 21.3281 52.2617 21.374C51.947 21.4527 51.6323 21.4986 51.3111 21.5379C50.8652 21.5838 50.4391 21.6756 50.0063 21.8002C49.613 21.9116 49.2261 22.0231 48.8196 22.0821C48.4525 22.1345 48.0853 22.1673 47.7182 22.2329C47.2854 22.3116 46.8789 22.4558 46.4921 22.659C46.1184 22.8557 45.7709 23.0918 45.4365 23.3344C45.2398 23.4786 45.0628 23.6491 44.8727 23.7999C44.8989 23.9375 44.8924 24.0818 44.8727 24.2064C44.8399 24.3965 44.735 24.626 44.5776 24.7636C44.5055 24.9866 44.381 25.1964 44.1449 25.275C44.1253 25.2947 44.1056 25.3078 44.0794 25.3209C44.0531 25.4127 44.0335 25.498 44.0007 25.5898C44.0007 25.5963 44.0007 25.6029 43.9941 25.6094L43.981 25.6291C43.9613 25.6488 43.9351 25.6422 43.922 25.616C43.9023 25.5635 43.8958 25.5045 43.9023 25.439C43.8892 25.4455 43.8827 25.4521 43.8696 25.4586C43.5286 25.6553 43.1484 25.7602 42.7746 25.8651C42.3223 25.9963 41.8764 25.9635 41.4503 25.8455C41.4175 25.852 41.3912 25.852 41.3585 25.8455C41.3519 25.9504 41.2995 26.0421 41.2404 26.1339C41.2208 26.1602 41.2011 26.1929 41.1749 26.2257C41.129 26.37 41.0831 26.5142 41.0372 26.665C41.0306 26.6847 41.0175 26.6978 41.0044 26.6978C40.9454 26.8945 40.8733 27.0715 40.6897 27.1961C40.6438 27.2288 40.5979 27.2551 40.552 27.2747C40.5455 27.2813 40.5324 27.2879 40.5258 27.2879C40.4209 27.3469 40.3029 27.36 40.198 27.4124C40.1127 27.4583 40.0537 27.5304 39.9619 27.5698C39.9161 27.5895 39.8767 27.5239 39.9095 27.4911C40.0472 27.3403 40.2242 27.2813 40.4143 27.2092C40.4602 27.1895 40.5061 27.1698 40.5455 27.1502C40.5848 27.1239 40.6241 27.0846 40.6635 27.0518C40.6504 27.0584 40.6373 27.0649 40.6307 27.0781C40.4668 27.1698 40.2767 27.2092 40.1193 27.3075C40.0669 27.3403 40.0078 27.2551 40.0603 27.2223C40.1783 27.1502 40.3029 27.1108 40.4275 27.0584C40.493 27.0322 40.5586 26.9994 40.611 26.96C40.4471 27.0387 40.2635 27.0649 40.1062 27.1633C40.0537 27.1961 39.9947 27.1174 40.0537 27.0781C40.198 26.9863 40.3619 26.9535 40.5127 26.8945C40.6241 26.8551 40.8733 26.7175 40.8798 26.5863C40.8798 26.5601 40.8995 26.547 40.9192 26.547C40.9126 26.4224 40.9979 26.311 41.0765 26.1995C41.1224 26.0487 41.1552 25.9045 41.1814 25.7537C41.1159 25.7274 41.0503 25.7078 40.9913 25.6815C40.611 25.9307 40.3488 26.3765 40.198 26.7961C40.1652 26.8814 40.1324 26.9732 40.0406 26.9994C39.962 27.019 39.8702 26.9928 39.7784 26.9535C39.6604 27.0518 39.5489 27.1502 39.4571 27.2813C39.3653 27.4059 39.2801 27.537 39.149 27.6353C39.0965 27.6747 39.0441 27.5895 39.0965 27.5501C39.2145 27.4583 39.2998 27.3338 39.385 27.2157C39.4702 27.0977 39.562 27.0059 39.6735 26.9141C39.68 26.9141 39.68 26.9076 39.6866 26.9076C39.68 26.901 39.6735 26.901 39.6669 26.8945C39.6538 26.9076 39.6407 26.9141 39.6276 26.9273C39.4768 27.0649 39.3719 27.242 39.2276 27.3928C39.1817 27.4387 39.1096 27.3731 39.1555 27.3272C39.2735 27.2092 39.3653 27.0649 39.4768 26.9404C39.5096 26.9076 39.5423 26.8748 39.5817 26.8486C39.5751 26.842 39.5686 26.842 39.562 26.8355C39.4178 26.9535 39.2866 27.0912 39.1817 27.242C39.1424 27.2944 39.0703 27.2289 39.1096 27.1764C39.2145 27.0322 39.3325 26.901 39.4702 26.7896C39.0637 26.5732 38.6244 26.3437 38.3229 25.9897C38.0803 25.7078 38.0081 25.3275 37.936 24.9735C37.9295 24.9407 37.9688 24.9144 37.995 24.921C38.4278 24.9866 38.867 25.0193 39.2998 24.9144C39.5292 24.8554 39.739 24.7636 39.9554 24.6719C39.9751 24.5866 40.0144 24.5014 40.08 24.4227C40.1193 24.3768 40.1586 24.3375 40.2045 24.2981C40.2045 24.2195 40.2242 24.1539 40.257 24.0883C40.0013 24.1211 39.7194 23.9769 39.4833 23.9244C39.3719 23.8982 39.2473 23.8982 39.1293 23.8982C39.0113 23.8982 38.8933 23.9048 38.7818 23.8982C38.5523 23.8851 38.3294 23.8392 38.113 23.7671C37.8967 23.695 37.6803 23.6032 37.4771 23.5114C37.2935 23.4261 37.1296 23.2885 36.9526 23.177C36.7362 23.0393 36.533 23.0197 36.2838 23.0787C36.0937 23.1246 35.9167 23.1967 35.72 23.2163C35.4839 23.2426 35.2414 23.2491 34.9988 23.2819C34.966 23.2885 34.9332 23.2885 34.9004 23.295C34.6775 23.3278 34.4546 23.3803 34.2317 23.4261C33.7662 23.5245 33.3007 23.6228 32.8286 23.6556C32.3303 23.695 31.8583 23.5835 31.3665 23.5245C30.9666 23.472 30.5142 23.5966 30.1405 23.4065C30.1011 23.3606 30.0946 23.3212 30.1143 23.295Z" fill="#04426F"/>
<path d="M27.6481 46.3993V29.7919H30.7624V29.1953H27.6481H27.4056H20.541V29.7919H23.8979V46.3993H20.541V47.0025H31.0116V46.3993H27.6481Z" fill="#04426F"/>
<path d="M8.13576 22.1074L6.69336 27.2083H10.66L11.8926 22.409C11.5779 22.4352 11.2566 22.4484 10.9288 22.4484C9.965 22.4484 9.02743 22.3303 8.13576 22.1074Z" fill="#04426F"/>
<path d="M11.041 0C4.94352 0 0 4.85173 0 10.8312C0 15.9058 3.55356 20.1543 8.35284 21.3345C9.21172 21.5443 10.1099 21.6557 11.041 21.6557C11.4016 21.6557 11.749 21.6361 12.1031 21.6033C13.2439 21.4984 14.3323 21.2165 15.3419 20.7969L14.2274 17.735C13.8274 17.9186 13.4078 18.0628 12.9751 18.1743C12.3522 18.3317 11.7032 18.4169 11.0344 18.4169C10.4115 18.4169 9.80836 18.3448 9.23139 18.2071C5.85485 17.4072 3.35031 14.4109 3.35031 10.8312C3.35031 6.63506 6.78586 3.2323 11.041 3.2323C15.2829 3.2323 18.725 6.63506 18.725 10.8312C18.725 11.7818 18.548 12.6932 18.2268 13.5258L19.7347 17.499C21.2034 15.6632 22.0819 13.3488 22.0819 10.8312C22.0688 4.85173 17.1253 0 11.041 0Z" fill="#04426F"/>
</svg>
